<?xml version="1.0" standalone="no"?>
<!DOCTYPE svg PUBLIC "-//W3C//DTD SVG 20010904//EN"
 "http://www.w3.org/TR/2001/REC-SVG-20010904/DTD/svg10.dtd">
<svg version="1.0" xmlns="http://www.w3.org/2000/svg"
 width="500.000000pt" height="500.000000pt" viewBox="0 0 500.000000 500.000000"
 preserveAspectRatio="xMidYMid meet">

<g transform="translate(0.000000,500.000000) scale(0.100000,-0.100000)"
fill="#000000" stroke="none">
<path d="M0 2500 l0 -2500 2500 0 2500 0 0 2500 0 2500 -2500 0 -2500 0 0
-2500z m2715 1970 c238 -27 433 -84 650 -190 239 -116 436 -264 607 -455 480
-532 634 -1287 402 -1971 -41 -121 -143 -327 -221 -444 -286 -432 -722 -732
-1225 -844 -732 -162 -1503 107 -1970 690 -137 170 -272 416 -336 610 -391
1182 383 2431 1609 2598 125 17 360 20 484 6z"/>
<path d="M2470 4423 c-35 -13 -60 -47 -60 -83 0 -46 21 -76 64 -90 63 -20 116
21 116 91 0 60 -63 103 -120 82z"/>
<path d="M2315 4371 c-3 -5 -20 -7 -39 -4 -20 3 -36 1 -40 -6 -4 -6 -17 -9
-29 -6 -12 4 -37 0 -55 -8 l-33 -13 28 -13 c21 -10 24 -14 12 -22 -21 -13 -42
-11 -65 6 -16 13 -17 16 -4 25 9 6 10 10 3 10 -6 0 -15 -5 -18 -10 -4 -6 -15
-8 -25 -5 -10 3 -35 -3 -54 -13 -36 -20 -36 -20 -11 -26 14 -4 25 -11 25 -16
0 -16 -47 -22 -71 -10 -22 12 -22 13 -3 28 19 14 19 15 -1 7 -11 -4 -36 -11
-55 -16 -19 -4 -36 -13 -38 -18 -2 -6 -16 -11 -32 -11 -15 0 -33 -7 -40 -15
-7 -8 -22 -15 -34 -15 -13 0 -33 -11 -46 -25 l-23 -25 21 0 c12 0 22 -4 22
-10 0 -17 -39 -31 -67 -24 l-26 7 22 19 c17 13 19 18 8 18 -9 0 -19 -5 -22
-10 -4 -6 -21 -17 -38 -25 -38 -18 -100 -55 -107 -64 -3 -3 -18 -12 -33 -19
-15 -6 -30 -19 -33 -27 -4 -8 -12 -15 -20 -15 -7 0 -27 -12 -44 -27 -17 -16
-41 -37 -53 -48 -13 -11 -35 -28 -50 -38 -15 -9 -27 -24 -27 -32 0 -8 -5 -15
-12 -15 -7 0 -34 -24 -60 -52 -27 -29 -59 -64 -71 -77 l-22 -24 25 17 c27 18
60 21 60 7 0 -21 -34 -43 -60 -39 -21 3 -34 -3 -51 -23 -13 -15 -34 -40 -46
-54 -13 -14 -23 -30 -23 -34 0 -4 -11 -20 -25 -35 -14 -15 -25 -33 -25 -40 0
-7 -9 -21 -20 -31 -11 -10 -20 -26 -20 -35 0 -9 -9 -25 -20 -35 -11 -10 -20
-29 -20 -42 0 -12 -5 -23 -12 -23 -6 0 -9 -2 -6 -5 3 -3 17 -1 32 4 22 9 26 8
26 -8 0 -21 -15 -35 -48 -46 -21 -6 -23 -4 -17 15 5 15 4 20 -4 16 -6 -4 -11
-15 -11 -24 0 -9 -7 -26 -15 -36 -8 -11 -15 -30 -15 -42 0 -12 -7 -27 -15 -34
-8 -7 -15 -24 -15 -39 0 -14 -7 -34 -15 -44 -7 -11 -11 -25 -8 -33 3 -8 -1
-22 -10 -32 -14 -16 -22 -45 -33 -117 -2 -16 -9 -52 -15 -80 -11 -55 -16 -93
-23 -175 -3 -43 -2 -50 7 -35 22 42 44 45 50 8 3 -21 5 -18 6 12 0 22 3 60 6
85 3 25 7 59 8 77 1 17 6 35 10 39 4 4 7 22 7 40 0 18 5 36 10 39 6 3 10 16
10 27 0 24 15 75 36 126 8 18 12 38 9 43 -4 5 1 16 9 25 9 8 16 25 16 36 0 11
9 31 20 45 11 14 20 34 20 43 0 10 7 23 15 30 8 7 15 21 15 31 0 11 9 28 20
39 11 11 20 29 20 40 0 11 5 20 11 20 5 0 16 15 24 33 8 19 21 39 29 47 9 7
16 18 16 26 0 7 9 18 19 24 11 5 23 20 27 32 4 12 17 31 30 41 13 10 24 24 24
32 0 7 11 20 25 29 14 9 25 22 25 30 0 7 11 18 25 24 14 6 25 19 25 27 0 8 11
21 25 27 13 6 27 19 30 29 3 10 15 21 26 24 11 4 27 17 35 31 9 13 22 24 30
24 7 0 19 9 27 20 7 10 25 24 40 29 15 6 27 15 27 21 0 5 16 16 35 24 19 8 35
20 35 25 0 6 6 11 13 11 7 0 28 11 46 24 l32 24 -27 9 c-26 9 -26 10 -9 27 13
12 26 15 44 11 36 -9 39 -14 17 -31 -11 -8 -15 -14 -9 -14 7 0 15 5 18 10 4 6
24 18 46 27 21 8 39 19 39 24 0 5 14 9 30 9 18 0 33 6 36 15 4 8 16 15 29 15
13 0 33 8 46 19 l23 18 -23 8 c-18 5 -20 9 -10 21 13 16 47 18 69 4 13 -9 12
-12 -4 -25 -17 -13 -17 -15 -4 -15 9 0 20 5 23 10 3 6 16 10 29 10 12 0 31 6
41 14 10 7 26 11 36 9 9 -3 28 1 40 8 13 7 30 12 38 10 7 -1 27 3 43 10 28 12
29 13 12 26 -27 20 -3 40 33 27 34 -12 40 -30 13 -39 -12 -4 -20 -8 -18 -10 2
-2 21 2 41 9 l37 13 -27 12 -28 13 23 11 c16 7 30 7 47 -1 28 -13 34 -32 10
-32 -8 0 -15 -4 -15 -10 0 -6 9 -6 23 -1 13 5 36 7 53 5 l29 -4 -31 10 c-17 5
-37 17 -44 25 -10 12 -7 15 14 21 16 4 32 1 41 -6 9 -7 15 -8 15 -2 0 20 -63
31 -75 13z m-250 -64 c20 -16 13 -37 -14 -37 -9 0 -26 7 -37 15 -16 13 -17 16
-4 25 20 13 33 12 55 -3z m-221 -73 c13 -5 14 -9 5 -20 -13 -16 -47 -18 -69
-4 -29 19 25 39 64 24z m-76 -30 c31 -9 10 -34 -29 -34 -32 0 -48 18 -28 31
17 10 26 11 57 3z m-220 -110 c45 -13 8 -46 -41 -37 -27 5 -27 6 -11 24 19 21
20 21 52 13z m-48 -53 c0 -16 -26 -31 -52 -31 -34 0 -37 23 -6 37 23 10 58 6
58 -6z m-71 -40 c21 -13 -31 -45 -59 -36 -20 6 -21 8 -4 26 18 20 41 24 63 10z
m-61 -58 c-2 -13 -14 -19 -41 -21 -39 -3 -49 10 -19 27 29 17 64 14 60 -6z
m-72 -69 c-21 -15 -66 -19 -66 -6 0 16 16 30 40 34 35 6 50 -10 26 -28z m-46
-32 c0 -17 -25 -32 -52 -32 -26 0 -28 2 -18 20 10 20 70 30 70 12z m-60 -63
c-13 -24 -30 -32 -62 -27 l-23 3 23 23 c12 12 33 22 47 22 23 0 24 -2 15 -21z
m-100 -108 c0 -18 -32 -41 -56 -41 -21 0 -23 3 -14 19 14 27 70 44 70 22z
m-69 -92 c-13 -10 -32 -19 -42 -19 -17 0 -18 3 -9 21 14 25 51 41 65 27 7 -6
2 -16 -14 -29z m-31 -43 c0 -16 -17 -31 -47 -40 -28 -9 -31 9 -6 36 19 21 53
24 53 4z m-40 -63 c0 -16 -17 -32 -43 -42 -21 -8 -27 -8 -27 4 0 20 28 45 51
45 10 0 19 -3 19 -7z m-40 -66 c0 -16 -27 -41 -52 -50 -11 -4 -18 -1 -18 6 0
25 32 53 63 56 4 1 7 -5 7 -12z m-70 -147 c0 -15 -38 -50 -55 -50 -20 0 -19
19 2 42 17 19 53 25 53 8z m-40 -79 c0 -18 -34 -51 -52 -51 -15 0 -8 30 12 50
25 25 40 25 40 1z m-26 -84 c-3 -9 -16 -23 -29 -31 -21 -14 -24 -14 -29 0 -7
19 42 70 55 57 5 -5 7 -17 3 -26z m-24 -64 c0 -20 -28 -53 -47 -53 -21 0 -15
37 9 54 29 20 38 20 38 -1z m-40 -115 c-29 -23 -40 -23 -40 1 0 11 12 29 28
41 l27 22 3 -23 c3 -15 -4 -30 -18 -41z m-16 -79 c-23 -26 -34 -24 -34 5 0 14
10 32 23 41 21 15 22 14 25 -6 2 -11 -4 -29 -14 -40z m6 -43 c0 -17 -45 -58
-53 -49 -13 12 -7 33 13 53 21 21 40 19 40 -4z m-26 -102 c-21 -29 -37 -33
-42 -10 -5 22 37 61 51 47 8 -8 6 -18 -9 -37z"/>
<path d="M2610 4370 c0 -19 54 -60 79 -60 16 0 44 -2 62 -5 19 -3 27 -2 19 1
-21 9 -50 35 -50 46 0 4 9 8 20 8 22 0 64 -36 56 -49 -7 -10 72 -37 81 -28 3
4 12 2 18 -3 7 -6 25 -11 41 -12 16 -1 39 -8 51 -16 13 -8 29 -12 36 -9 7 3
21 -1 32 -9 10 -8 29 -14 41 -14 13 0 26 -4 29 -10 3 -5 11 -10 17 -10 7 0 5
7 -4 18 -30 34 -30 42 -3 42 32 0 58 -46 34 -61 -11 -7 -10 -9 7 -9 11 0 26
-6 34 -12 8 -7 7 -4 -3 8 -16 20 -23 54 -11 54 35 0 73 -60 45 -72 -13 -5 -12
-7 5 -7 12 -1 27 -8 34 -16 7 -8 21 -15 31 -15 11 0 28 -9 39 -20 11 -11 29
-20 40 -20 11 0 20 -5 20 -11 0 -5 15 -16 33 -24 19 -8 39 -21 47 -29 7 -9 18
-16 26 -16 7 0 24 -9 36 -20 76 -68 92 -80 104 -80 7 0 15 -9 19 -19 3 -11 14
-23 25 -26 10 -3 25 -17 34 -30 9 -14 22 -25 30 -25 7 0 18 -11 24 -24 6 -13
20 -27 31 -31 12 -3 21 -12 21 -18 0 -7 11 -23 24 -37 55 -57 76 -81 76 -89 0
-5 11 -19 25 -32 13 -13 25 -29 25 -35 0 -6 7 -17 16 -24 8 -8 21 -28 29 -47
8 -18 19 -33 24 -33 6 0 11 -8 12 -17 0 -12 4 -8 11 10 5 15 14 27 18 27 15 0
31 -40 25 -60 -7 -23 -16 -25 -33 -8 -9 9 -12 9 -12 0 0 -7 7 -15 15 -18 8 -4
15 -14 15 -24 0 -9 9 -29 20 -43 11 -14 20 -34 20 -45 0 -11 7 -25 15 -32 8
-7 15 -23 15 -35 0 -12 7 -28 15 -35 8 -7 15 -19 15 -28 0 -21 18 -79 38 -120
14 -29 17 -31 25 -15 15 27 17 29 27 13 14 -21 12 -43 -4 -66 -14 -18 -15 -18
-25 6 -9 22 -10 23 -10 4 -1 -11 2 -24 6 -27 3 -4 7 -17 9 -30 3 -34 15 -100
21 -117 5 -14 8 -40 15 -125 3 -37 5 -40 34 -40 27 -1 30 2 26 23 -4 23 -5 23
-19 2 -8 -11 -18 -20 -24 -20 -14 0 -11 44 5 66 15 19 15 19 30 -1 15 -19 16
-18 6 9 -6 16 -8 36 -5 44 3 8 0 30 -7 48 l-12 34 -17 -27 -18 -27 -7 29 c-7
29 3 56 24 63 7 2 12 -4 12 -14 0 -9 3 -15 6 -11 4 3 3 14 -1 24 -4 10 -7 30
-6 45 1 14 -2 29 -8 33 -6 3 -11 21 -11 39 0 19 -6 39 -14 45 -7 6 -11 21 -9
34 3 14 -2 29 -11 36 -9 8 -16 26 -16 42 0 15 -7 34 -15 43 -8 8 -15 22 -15
31 0 9 -6 29 -14 43 -8 15 -19 38 -25 52 -6 14 -15 33 -21 43 -26 45 -31 54
-46 90 -9 20 -20 37 -24 37 -4 0 -13 14 -19 30 -5 17 -17 33 -26 36 -8 3 -15
14 -15 24 0 19 -30 50 -48 50 -7 0 -12 -7 -12 -15 0 -18 -12 -19 -28 -3 -13
13 -17 68 -4 68 12 0 29 -14 35 -30 4 -12 6 -12 6 2 1 10 -10 25 -24 34 -14 9
-25 22 -25 28 0 6 -12 23 -27 38 -16 14 -46 46 -68 72 -22 25 -45 46 -52 46
-6 0 -15 9 -18 20 -3 11 -16 25 -28 32 -12 6 -30 22 -40 35 -10 12 -25 23 -32
23 -8 0 -19 9 -25 19 -5 11 -19 23 -30 26 -11 4 -32 17 -45 31 -13 13 -31 24
-40 24 -8 0 -15 5 -15 11 0 5 -15 16 -33 24 -19 8 -39 21 -47 29 -7 9 -19 16
-27 16 -8 0 -26 9 -40 20 -14 11 -34 20 -43 20 -10 0 -20 7 -24 15 -3 8 -13
15 -23 15 -15 0 -15 -2 4 -15 29 -20 37 -55 12 -55 -19 0 -56 46 -46 56 8 9
-48 54 -66 54 -8 0 -27 7 -43 14 -15 8 -32 13 -36 10 -5 -3 -17 1 -26 9 -9 8
-30 17 -47 20 -16 3 -48 10 -70 16 -133 34 -130 33 -245 46 -75 9 -120 11
-120 5z m88 -16 c30 -21 28 -34 -7 -34 -31 0 -57 22 -46 40 9 14 27 13 53 -6z
m159 -26 c28 -26 29 -38 3 -38 -24 0 -63 37 -55 50 10 16 27 12 52 -12z m82
-20 c24 -25 19 -38 -12 -31 -22 5 -47 29 -47 45 0 16 40 7 59 -14z m73 -15
c21 -19 24 -43 5 -43 -15 0 -36 16 -56 43 -12 15 -11 17 9 17 13 0 32 -7 42
-17z m83 -33 c14 -28 14 -30 -2 -30 -24 0 -38 10 -52 38 -11 20 -9 22 13 22
18 0 30 -9 41 -30z m277 -102 c22 -18 33 -58 16 -58 -7 0 -18 4 -24 8 -11 7
-34 45 -34 56 0 10 26 6 42 -6z m70 -40 c9 -7 19 -23 23 -35 13 -46 -42 -17
-58 30 -8 20 12 23 35 5z m70 -45 c21 -19 24 -53 4 -53 -17 0 -31 18 -39 48
-6 26 9 29 35 5z m68 -45 c21 -23 27 -58 10 -58 -17 0 -50 39 -50 60 0 26 14
25 40 -2z m62 -45 c17 -15 26 -63 11 -63 -16 0 -43 35 -43 57 0 27 7 29 32 6z
m62 -49 c17 -17 22 -64 7 -64 -14 0 -41 41 -41 62 0 22 14 23 34 2z m58 -51
c19 -17 25 -63 9 -63 -18 0 -41 32 -41 56 0 28 7 30 32 7z m68 -62 c11 -22 14
-61 3 -61 -16 0 -43 35 -43 57 0 28 25 31 40 4z m48 -53 c7 -7 12 -25 12 -40
0 -26 -2 -28 -20 -18 -13 7 -20 21 -20 40 0 32 9 37 28 18z m62 -93 c0 -19 -2
-35 -4 -35 -15 0 -36 36 -36 61 0 27 2 29 20 19 14 -8 20 -21 20 -45z m88 -87
c13 -13 16 -60 5 -71 -13 -13 -33 16 -33 49 0 36 8 42 28 22z m51 -80 c4 -11
6 -32 3 -45 -4 -23 -5 -23 -23 -7 -11 9 -19 27 -19 39 0 39 26 48 39 13z m79
-161 c2 -28 -1 -37 -12 -37 -18 0 -30 33 -21 61 10 31 30 17 33 -24z m37 -86
c-6 -26 -9 -30 -21 -20 -14 12 -19 60 -7 73 15 15 35 -22 28 -53z m30 -32 c8
-24 -2 -69 -15 -69 -13 0 -23 38 -16 66 8 29 22 31 31 3z m33 -90 c3 -29 -12
-54 -27 -45 -12 8 -15 59 -4 70 12 12 28 0 31 -25z m32 -82 c0 -4 -5 -17 -11
-28 -8 -16 -13 -18 -25 -8 -17 14 -17 19 -3 56 10 27 11 27 25 9 8 -11 14 -24
14 -29z m35 -137 c6 -20 -10 -60 -25 -60 -16 0 -21 38 -8 59 16 26 25 26 33 1z
m29 -155 c6 -17 -13 -65 -26 -65 -16 0 -21 31 -10 56 13 27 27 31 36 9z"/>
<path d="M2365 3799 c-483 -40 -890 -376 -1012 -834 -24 -89 -27 -118 -27
-270 0 -141 3 -184 21 -255 108 -426 417 -721 858 -816 111 -24 346 -24 480 0
220 40 455 136 455 186 0 11 -20 61 -45 110 -52 104 -53 105 -153 61 -152 -67
-330 -96 -532 -88 -153 6 -219 21 -335 77 -209 100 -354 277 -417 506 -28 104
-30 306 -5 407 63 252 252 472 489 566 129 52 198 64 353 64 227 -1 398 -47
558 -153 153 -100 248 -239 297 -436 30 -118 26 -297 -8 -360 -61 -117 -166
-149 -219 -67 -16 24 -18 58 -21 337 -1 208 -6 314 -13 323 -9 10 -54 13 -193
13 -188 0 -206 -4 -206 -42 0 -24 0 -24 -60 17 -122 82 -262 86 -415 11 -174
-86 -275 -260 -275 -474 0 -165 46 -287 150 -393 147 -151 382 -183 585 -82
28 14 60 34 72 46 l22 20 36 -27 c19 -15 65 -41 103 -59 59 -28 79 -32 174
-35 312 -11 524 144 584 428 29 135 8 368 -47 532 -121 363 -447 613 -875 672
-143 19 -268 25 -379 15z m219 -933 c53 -40 81 -107 81 -191 -1 -81 -23 -134
-79 -182 -117 -104 -277 1 -279 181 -2 182 152 288 277 192z"/>
<path d="M602 2570 c-61 -57 -25 -160 56 -160 44 0 68 14 87 50 19 37 10 85
-23 110 -33 26 -92 26 -120 0z"/>
<path d="M4278 2570 c-33 -25 -42 -73 -23 -110 19 -36 43 -50 87 -50 79 1 115
87 62 149 -31 38 -87 43 -126 11z"/>
<path d="M621 2368 c0 -15 3 -29 8 -32 4 -3 6 -17 4 -31 -3 -13 -2 -33 2 -42
4 -10 7 -30 6 -45 -1 -15 1 -33 5 -40 5 -7 7 -25 5 -40 -1 -14 2 -29 8 -33 6
-3 11 -21 11 -39 0 -19 6 -39 13 -45 8 -6 12 -23 9 -39 -2 -17 2 -33 12 -41 8
-7 12 -19 9 -27 -3 -8 2 -25 11 -39 9 -13 16 -33 16 -43 0 -10 7 -27 15 -38 8
-10 15 -26 15 -34 0 -9 8 -27 17 -40 10 -14 19 -34 20 -44 2 -11 9 -27 16 -35
7 -9 19 -27 25 -41 33 -68 59 -105 75 -108 10 -2 17 3 17 12 0 19 11 20 30 4
7 -7 4 0 -8 16 -12 16 -22 35 -22 42 0 7 -8 19 -17 26 -10 7 -20 22 -21 33 -2
11 -10 27 -17 35 -7 8 -17 27 -20 43 -9 33 -40 54 -49 32 -14 -37 -44 6 -31
45 8 26 23 25 35 -2 7 -19 9 -20 9 -5 1 11 -8 30 -18 43 l-20 25 -3 -23 c-3
-26 -18 -28 -32 -5 -7 10 -6 25 3 44 12 27 13 27 27 8 8 -10 14 -14 14 -8 0 6
-6 16 -14 23 -8 6 -12 18 -9 26 3 8 -2 25 -11 39 -9 13 -16 35 -16 49 0 14 -4
28 -10 31 -5 3 -10 21 -10 39 0 18 -3 36 -7 40 -5 4 -9 22 -10 39 -1 18 -9 74
-17 125 -8 52 -12 101 -9 110 2 10 -5 5 -17 -10 -12 -16 -25 -28 -30 -28 -5 0
-11 12 -13 28 l-4 27 -2 -27z m59 -56 c0 -27 -15 -52 -32 -52 -13 0 -9 55 4
68 19 19 28 14 28 -16z m10 -81 c0 -29 -21 -57 -33 -44 -11 11 -8 48 5 61 19
19 28 14 28 -17z m10 -60 c7 -14 7 -27 -2 -45 -22 -50 -49 -17 -28 34 15 35
16 36 30 11z m20 -100 c0 -29 -21 -57 -33 -44 -18 17 4 89 24 78 5 -4 9 -19 9
-34z m20 -79 c0 -15 -5 -34 -10 -42 -9 -13 -11 -13 -20 0 -13 19 -13 37 1 61
13 25 29 15 29 -19z m30 -75 c0 -15 -20 -47 -30 -47 -16 0 -21 37 -8 65 11 25
13 25 25 9 7 -10 13 -22 13 -27z m80 -207 c12 -22 3 -73 -11 -64 -18 11 -26
40 -18 62 10 27 15 28 29 2z m38 -98 c3 -34 0 -41 -12 -36 -19 7 -29 38 -21
65 11 33 30 16 33 -29z m41 -44 c4 -11 6 -32 3 -45 -5 -25 -5 -25 -25 -5 -14
15 -18 27 -13 46 8 32 24 34 35 4z"/>
<path d="M4319 2380 c0 -3 -7 -48 -15 -100 -8 -52 -16 -108 -19 -125 -2 -16
-9 -50 -15 -75 -6 -25 -14 -58 -17 -74 -3 -16 -11 -40 -19 -54 -7 -13 -10 -30
-8 -37 3 -6 -2 -18 -11 -25 -8 -7 -15 -22 -15 -34 0 -11 -7 -30 -15 -40 -8
-11 -15 -28 -15 -39 0 -10 -7 -25 -15 -33 -8 -9 -15 -23 -15 -33 0 -10 -9 -26
-20 -36 -11 -10 -20 -26 -20 -37 0 -10 -9 -27 -20 -38 -11 -11 -20 -28 -20
-38 0 -9 -9 -23 -20 -30 -11 -7 -20 -21 -20 -31 0 -10 -7 -21 -15 -25 -8 -3
-21 -18 -28 -33 -6 -15 -21 -37 -32 -50 -11 -12 -31 -36 -45 -53 -14 -17 -37
-43 -52 -58 -16 -15 -28 -32 -28 -39 0 -7 -5 -13 -10 -13 -6 0 -35 -25 -65
-55 -30 -30 -59 -55 -64 -55 -5 0 -17 -10 -25 -21 -8 -12 -23 -27 -34 -33 -49
-28 -102 -67 -102 -74 0 -4 -12 -13 -27 -20 -16 -6 -46 -23 -68 -36 -22 -14
-53 -32 -70 -40 -16 -9 -37 -19 -45 -24 -45 -26 -84 -42 -100 -42 -9 0 -23 -7
-30 -15 -7 -8 -22 -15 -34 -16 -15 -1 -13 -4 12 -11 36 -12 40 -22 15 -36 -10
-6 -27 -6 -45 0 -23 8 -26 13 -17 24 13 16 6 18 -19 5 -9 -5 -37 -14 -62 -21
-25 -7 -55 -16 -68 -21 -13 -5 -33 -9 -46 -9 -13 0 -35 -6 -49 -13 -24 -13
-25 -14 -6 -25 11 -7 17 -17 14 -22 -9 -14 -47 -12 -68 4 -16 13 -16 14 5 30
23 16 23 16 -5 6 -16 -6 -41 -10 -57 -10 -16 0 -31 -4 -35 -10 -3 -5 -12 -7
-20 -3 -9 3 -31 2 -50 -1 -35 -7 -35 -7 -18 -30 18 -24 86 -36 98 -16 4 6 13
7 23 1 10 -5 27 -5 42 1 14 6 39 12 55 14 61 6 108 17 132 29 l24 13 -26 6
c-14 4 -25 11 -25 16 0 16 47 22 71 10 22 -12 22 -13 4 -26 -10 -8 -14 -14 -8
-14 7 0 15 5 18 10 3 6 18 10 33 10 15 0 37 7 49 15 12 9 26 14 30 13 13 -3
53 13 53 21 0 5 11 8 25 8 14 0 34 8 44 17 9 9 25 16 34 16 9 0 26 9 36 19 11
11 22 17 25 13 3 -3 6 0 6 6 0 7 -11 12 -25 12 -30 0 -33 15 -5 30 21 11 70 4
70 -11 0 -4 -8 -13 -17 -18 -10 -6 -13 -11 -7 -11 6 0 17 7 24 15 7 8 18 15
25 15 8 0 26 11 42 24 15 13 38 26 51 30 12 4 22 12 22 17 0 5 8 13 18 17 20
8 69 44 108 79 14 13 29 23 34 23 5 0 17 11 27 23 10 13 28 29 40 35 12 7 24
20 28 31 3 10 15 21 26 24 11 3 23 14 26 25 2 11 18 29 34 41 16 12 29 28 29
36 0 7 9 16 19 20 11 3 23 16 27 28 4 12 16 28 26 36 11 7 24 23 29 35 5 11
27 46 49 76 22 30 40 60 40 66 0 6 9 19 20 29 11 10 20 25 20 32 0 8 9 26 20
40 11 14 20 34 20 43 0 10 7 23 15 30 8 7 15 23 15 35 0 12 7 28 15 35 8 7 15
22 15 34 0 11 7 30 15 40 8 11 15 29 15 41 0 12 4 25 10 31 5 5 11 23 12 39 1
17 8 40 16 52 8 13 11 30 8 39 -4 9 -2 22 3 28 9 12 20 67 25 128 2 36 2 36
-21 21 -22 -15 -23 -14 -23 9 0 14 8 32 18 41 23 21 30 21 35 0 2 -10 3 -7 2
7 -2 14 1 33 6 43 16 28 2 57 -27 55 -13 -1 -24 -5 -25 -8z m41 -47 c-22 -39
-40 -41 -40 -4 0 18 7 34 18 40 27 15 40 -5 22 -36z m-10 -133 c0 -22 -38 -62
-52 -54 -14 9 -9 27 14 51 26 28 38 29 38 3z m-20 -84 c0 -14 -10 -32 -22 -41
-22 -15 -23 -14 -26 6 -4 20 23 59 40 59 4 0 8 -11 8 -24z m-10 -71 c0 -17
-35 -55 -50 -55 -16 0 -12 32 7 52 20 22 43 24 43 3z m-50 -117 c-12 -10 -26
-16 -30 -13 -13 8 1 45 24 61 19 14 21 13 24 -8 3 -14 -4 -29 -18 -40z m0 -37
c0 -18 -34 -51 -52 -51 -17 0 -7 40 14 54 30 21 38 20 38 -3z m-30 -81 c0 -12
-12 -26 -30 -35 -28 -14 -30 -14 -30 1 0 21 28 54 47 54 7 0 13 -9 13 -20z
m-30 -69 c0 -18 -34 -51 -52 -51 -17 0 -7 40 14 54 30 21 38 20 38 -3z m-30
-71 c0 -15 -38 -50 -55 -50 -20 0 -19 24 1 44 17 18 54 22 54 6z m-40 -68 c0
-15 -25 -40 -47 -47 -28 -8 -31 10 -6 37 16 18 53 25 53 10z m-40 -70 c0 -16
-25 -40 -47 -45 -27 -6 -31 14 -7 37 16 17 54 22 54 8z m-52 -84 c-15 -23 -68
-38 -68 -19 0 18 31 41 57 41 24 0 25 -1 11 -22z m-38 -46 c0 -26 -68 -64 -70
-39 -1 23 2 28 23 37 28 11 47 12 47 2z m-70 -94 c-22 -18 -60 -25 -60 -10 1
17 19 33 46 41 37 10 45 -6 14 -31z m-30 -37 c0 -14 -23 -29 -53 -35 -31 -5
-38 17 -9 33 21 13 62 14 62 2z m-60 -60 c0 -17 -29 -32 -56 -29 -27 3 -27 4
-10 21 18 18 66 24 66 8z m-50 -49 c0 -20 -40 -43 -67 -40 l-28 3 23 23 c21
21 72 31 72 14z m-60 -60 c0 -18 -26 -32 -59 -32 -33 0 -34 0 -16 20 17 19 75
28 75 12z m-60 -46 c0 -15 -36 -36 -61 -36 -31 0 -36 9 -17 28 11 11 78 18 78
8z m-71 -52 c10 -9 -24 -34 -45 -34 -31 0 -41 20 -19 37 16 11 50 10 64 -3z
m-66 -41 c4 -3 2 -12 -4 -20 -13 -15 -79 -18 -79 -3 0 21 67 40 83 23z m-63
-50 c12 -11 -36 -34 -60 -28 -35 9 -38 15 -15 31 18 13 61 12 75 -3z m-156
-69 c21 -8 2 -34 -24 -34 -35 0 -52 11 -39 26 12 15 37 18 63 8z m-74 -34 c13
-9 13 -12 -3 -24 -19 -14 -53 -11 -63 6 -14 22 39 36 66 18z m-146 -56 c13 -5
14 -9 5 -20 -20 -25 -91 -11 -75 15 8 12 45 15 70 5z m-163 -45 c26 -13 15
-29 -20 -29 -32 0 -61 25 -39 33 21 9 38 8 59 -4z m-153 -31 c7 -7 12 -15 12
-19 0 -14 -40 -16 -57 -3 -24 18 -34 17 -27 -1 5 -11 -1 -15 -23 -15 -29 0
-53 15 -53 33 0 5 16 7 35 4 19 -3 37 -1 40 4 9 13 59 11 73 -3z"/>
<path d="M980 1471 c0 -31 -21 -36 -42 -10 -19 24 -19 24 -8 1 6 -13 18 -26
26 -29 8 -3 14 -12 14 -20 0 -7 11 -25 24 -38 14 -13 27 -33 31 -44 3 -10 13
-22 22 -26 15 -5 15 -4 0 13 -17 19 -24 72 -9 72 20 0 32 -28 32 -71 0 -43 17
-79 38 -79 4 0 15 -14 24 -30 9 -17 24 -30 33 -30 8 0 15 -7 15 -15 0 -8 12
-22 28 -32 15 -10 35 -28 45 -40 10 -13 23 -23 29 -23 5 0 19 -11 30 -25 11
-14 24 -25 30 -25 5 0 19 -11 30 -25 11 -14 28 -25 38 -25 10 0 20 -7 24 -15
3 -8 18 -21 33 -28 15 -6 36 -20 45 -29 10 -10 25 -18 33 -18 8 0 24 -9 35
-20 11 -11 28 -20 39 -20 10 0 24 -7 31 -15 7 -8 17 -15 23 -15 6 0 2 7 -10
15 -29 20 -37 55 -12 55 21 0 53 -43 47 -62 -5 -15 44 -48 70 -48 10 0 24 -6
32 -12 7 -7 6 -2 -3 12 -22 32 -21 40 2 40 18 0 51 -34 51 -52 0 -5 -8 -8 -17
-9 -14 0 -15 -2 -3 -6 8 -2 30 -11 48 -19 18 -8 37 -12 43 -8 6 4 15 1 19 -6
4 -7 26 -16 49 -21 22 -5 60 -14 84 -20 23 -6 56 -12 72 -13 17 -2 37 -5 45
-9 23 -8 193 -27 198 -22 3 3 -4 5 -15 5 -18 0 -53 28 -53 43 0 12 45 8 58 -5
9 -9 12 -9 12 0 0 13 -37 25 -66 21 -11 -1 -27 1 -37 6 -9 4 -27 5 -39 2 -12
-4 -27 -2 -32 2 -11 8 -62 19 -116 24 -14 2 -35 9 -48 16 -13 7 -30 10 -39 7
-8 -3 -21 1 -29 9 -9 8 -28 15 -44 15 -16 0 -32 5 -35 10 -3 6 -14 9 -23 9
-16 -1 -16 -2 0 -6 22 -6 51 -50 37 -58 -12 -8 -59 21 -60 38 -1 6 0 19 1 27
1 8 -1 12 -5 8 -4 -4 -19 1 -33 12 -13 11 -28 17 -33 14 -5 -3 -21 4 -35 15
-15 12 -33 21 -41 21 -8 0 -21 7 -29 15 -9 8 -23 15 -33 15 -10 0 -26 9 -36
20 -10 11 -26 20 -35 20 -9 0 -25 9 -35 20 -10 11 -26 20 -37 20 -10 0 -18 4
-18 10 0 9 -48 45 -102 76 -11 6 -26 21 -34 33 -8 11 -21 21 -28 21 -8 0 -21
11 -30 24 -8 14 -24 27 -35 31 -10 3 -21 15 -24 26 -3 11 -14 23 -25 26 -11 2
-24 15 -30 28 -6 13 -20 26 -30 29 -11 4 -23 18 -26 31 -3 13 -15 26 -25 30
-10 3 -22 17 -25 30 -3 13 -15 29 -26 35 -11 6 -20 16 -20 21 0 6 -11 24 -25
41 -22 26 -25 27 -25 9z m40 -68 c0 -23 -4 -33 -12 -31 -18 6 -33 52 -24 73
10 28 36 -1 36 -42z m88 -85 c13 -13 17 -68 4 -68 -17 0 -32 25 -32 52 0 30 9
35 28 16z m54 -65 c17 -15 26 -63 11 -63 -16 0 -43 35 -43 57 0 27 7 29 32 6z
m62 -65 c16 -23 22 -58 9 -58 -16 0 -43 35 -43 57 0 29 14 30 34 1z m69 -71
c5 -16 6 -31 3 -35 -13 -12 -41 15 -44 42 -5 38 28 32 41 -7z m51 -33 c19 -19
21 -54 3 -54 -20 0 -37 22 -37 47 0 27 12 29 34 7z m64 -46 c14 -14 16 -58 3
-58 -16 0 -41 31 -41 51 0 21 20 25 38 7z m62 -48 c20 -20 28 -60 12 -60 -17
0 -41 26 -48 53 -8 33 7 36 36 7z m74 -52 c20 -28 20 -48 2 -48 -21 0 -46 28
-46 51 0 26 25 24 44 -3z m64 -30 c17 -23 24 -58 11 -58 -19 0 -49 31 -49 52
0 21 23 24 38 6z m127 -64 c8 -4 22 -19 31 -35 13 -26 13 -29 -2 -29 -24 0
-54 29 -54 52 0 20 1 21 25 12z m245 -104 c25 -25 25 -40 1 -40 -18 0 -51 34
-51 52 0 15 30 8 50 -12z m87 -29 c18 -23 16 -31 -6 -31 -23 0 -51 25 -51 46
0 19 39 9 57 -15z m73 -11 c25 -25 26 -40 2 -40 -21 0 -66 43 -55 53 12 12 33
7 53 -13z m82 -17 c24 -22 23 -33 -4 -33 -22 0 -58 26 -58 42 0 14 43 9 62 -9z
m80 -10 c24 -22 23 -33 -4 -33 -22 0 -58 26 -58 42 0 14 43 9 62 -9z"/>
<path d="M2560 1420 c0 -15 7 -20 25 -20 18 0 25 5 25 20 0 15 -7 20 -25 20
-18 0 -25 -5 -25 -20z"/>
<path d="M2242 1348 c-18 -46 -32 -87 -32 -91 0 -11 48 -8 55 3 3 6 19 10 36
10 16 0 29 -4 29 -10 0 -5 14 -10 30 -10 17 0 30 1 30 3 0 2 -15 41 -33 88
-28 72 -36 84 -58 87 -24 3 -28 -3 -57 -80z m68 -19 c0 -5 -4 -9 -10 -9 -5 0
-10 7 -10 16 0 8 5 12 10 9 6 -3 10 -10 10 -16z"/>
<path d="M2458 1383 l-38 -4 0 -65 c0 -61 1 -64 24 -64 22 0 25 5 28 43 3 38
6 42 31 45 22 3 28 8 25 25 -3 23 -12 26 -70 20z"/>
<path d="M2667 1383 c-10 -3 -17 -12 -15 -21 2 -13 12 -16 36 -14 18 2 32 -1
32 -7 0 -6 -14 -11 -30 -11 -23 0 -33 -6 -42 -25 -17 -38 3 -54 68 -54 l54 0
0 54 c0 44 -4 57 -22 69 -22 16 -45 18 -81 9z m53 -88 c0 -8 -7 -15 -15 -15
-16 0 -20 12 -8 23 11 12 23 8 23 -8z"/>
<path d="M2843 1383 l-43 -4 0 -65 c0 -61 1 -64 24 -64 23 0 25 5 28 48 2 34
7 47 18 47 11 0 16 -13 18 -47 3 -43 5 -48 28 -48 22 0 24 3 24 54 0 55 -17
88 -43 84 -7 -1 -31 -3 -54 -5z"/>
<path d="M2560 1315 c0 -63 1 -65 25 -65 24 0 25 2 25 65 0 63 -1 65 -25 65
-24 0 -25 -2 -25 -65z"/>
<path d="M1819 1185 c0 -8 0 -42 0 -75 0 -33 0 -67 0 -75 1 -9 11 -15 26 -15
18 0 25 5 25 20 0 14 7 20 21 20 48 0 87 49 73 92 -12 39 -143 69 -145 33z
m91 -54 c0 -10 -7 -22 -16 -25 -23 -9 -24 -8 -24 19 0 18 5 25 20 25 13 0 20
-7 20 -19z"/>
<path d="M2950 1111 c0 -90 0 -91 25 -91 21 0 25 5 25 28 l1 27 17 -27 c10
-17 25 -28 39 -28 27 0 27 2 9 38 -12 23 -12 31 0 52 19 35 17 40 -11 40 -15
0 -29 -9 -37 -22 -12 -22 -13 -20 -18 22 -4 37 -9 46 -27 48 -22 3 -23 1 -23
-87z"/>
<path d="M2670 1170 c0 -11 -7 -20 -15 -20 -8 0 -15 -9 -15 -20 0 -11 7 -20
15 -20 10 0 15 -10 15 -33 0 -40 15 -57 52 -57 21 0 28 5 28 20 0 11 -7 20
-15 20 -9 0 -15 9 -15 25 0 16 6 25 15 25 8 0 15 9 15 20 0 11 -7 20 -15 20
-8 0 -15 9 -15 20 0 15 -7 20 -25 20 -18 0 -25 -5 -25 -20z"/>
<path d="M2035 1148 c-27 -15 -35 -28 -35 -60 0 -51 59 -83 114 -62 22 8 8 36
-15 29 -10 -4 -27 -2 -36 4 -14 8 -10 10 25 11 38 0 42 2 42 25 0 29 -32 65
-57 65 -10 0 -27 -6 -38 -12z m50 -38 c3 -5 -3 -10 -14 -10 -12 0 -21 5 -21
10 0 6 6 10 14 10 8 0 18 -4 21 -10z"/>
<path d="M2203 1153 l-43 -4 0 -65 c0 -62 1 -64 25 -64 21 0 25 5 25 29 0 45
10 61 36 61 19 0 24 5 24 25 0 14 -5 24 -12 23 -7 -1 -32 -3 -55 -5z"/>
<path d="M2336 1139 c-53 -42 -24 -119 45 -119 24 0 59 26 59 45 0 4 -18 5
-40 1 -31 -5 -42 -3 -46 9 -10 24 14 47 36 35 47 -25 70 5 28 34 -30 21 -50
20 -82 -5z"/>
<path d="M2515 1148 c-27 -15 -35 -28 -35 -60 0 -51 59 -83 114 -62 22 8 8 36
-15 29 -10 -4 -27 -2 -36 4 -14 8 -10 10 25 11 38 0 42 2 42 25 0 29 -32 65
-57 65 -10 0 -27 -6 -38 -12z m50 -38 c3 -5 -3 -10 -14 -10 -12 0 -21 5 -21
10 0 6 6 10 14 10 8 0 18 -4 21 -10z"/>
<path d="M2818 1153 c-10 -2 -18 -13 -18 -23 0 -16 5 -18 30 -13 19 3 30 1 30
-6 0 -6 -11 -11 -24 -11 -32 0 -59 -36 -45 -61 7 -14 21 -18 69 -18 l60 1 0
47 c0 26 -6 55 -12 64 -14 18 -61 29 -90 20z m50 -85 c-6 -18 -28 -21 -28 -4
0 9 7 16 16 16 9 0 14 -5 12 -12z"/>
<path d="M3147 1153 c-30 -8 -16 -39 16 -35 15 2 27 -1 27 -7 0 -6 -11 -11
-24 -11 -30 0 -49 -22 -44 -52 3 -21 9 -23 66 -25 l62 -2 0 47 c0 27 -6 56
-12 65 -14 18 -61 29 -91 20z m51 -85 c-6 -18 -28 -21 -28 -4 0 9 7 16 16 16
9 0 14 -5 12 -12z"/>
<path d="M3318 1153 l-38 -4 0 -65 c0 -61 1 -64 24 -64 22 0 25 5 28 47 4 64
26 69 30 6 3 -41 6 -48 26 -51 21 -3 22 0 22 55 0 60 -12 84 -39 81 -9 -1 -33
-3 -53 -5z"/>
<path d="M2463 745 c-36 -15 -53 -41 -53 -80 0 -53 36 -94 83 -95 57 0 96 35
97 88 0 46 -16 71 -55 88 -40 16 -32 17 -72 -1z"/>
</g>
</svg>
